<?xml version="1.0" encoding="UTF-8"?>
<svg version="1.1" xmlns="http://www.w3.org/2000/svg" width="48" height="48">
<path d="M0 0 C2 2 2 2 2.1953125 4.1640625 C2.17210938 4.97617188 2.14890625 5.78828125 2.125 6.625 C2.10695313 7.44226563 2.08890625 8.25953125 2.0703125 9.1015625 C2.04710938 9.72804688 2.02390625 10.35453125 2 11 C0.68 10.67 -0.64 10.34 -2 10 C-2 8.68 -2 7.36 -2 6 C-2.66 6 -3.32 6 -4 6 C-3.76289307 6.59949463 -3.52578613 7.19898926 -3.28149414 7.81665039 C-2.20067619 10.56226168 -1.13152383 13.3122763 -0.0625 16.0625 C0.31068359 17.00544922 0.68386719 17.94839844 1.06835938 18.91992188 C3.02783015 23.98630126 4.52639043 28.57980158 5 34 C5.66 34 6.32 34 7 34 C6.67 35.65 6.34 37.3 6 39 C0.86123014 40.71292329 -4.55861885 40.18460346 -9.9375 40.1875 C-11.13052734 40.19974609 -12.32355469 40.21199219 -13.55273438 40.22460938 C-15.27266602 40.22750977 -15.27266602 40.22750977 -17.02734375 40.23046875 C-18.07656006 40.23457764 -19.12577637 40.23868652 -20.20678711 40.24291992 C-22.9917317 40.00071908 -24.63132799 39.43513866 -27 38 C-27 36.68 -27 35.36 -27 34 C-26.34 34 -25.68 34 -25 34 C-24.9175 32.9275 -24.835 31.855 -24.75 30.75 C-23.46870658 20.69540577 -19.60447053 9.21070566 -12.25 1.9375 C-8.1417586 -0.51164391 -4.695465 -0.89213835 0 0 Z " fill="#683BB6" transform="translate(34,4)"/>
<path d="M0 0 C0.80953125 0.16242187 1.6190625 0.32484375 2.453125 0.4921875 C6.5893305 1.08437551 10.57903205 1.14949908 14.75 1.125 C15.93891846 1.12209961 15.93891846 1.12209961 17.15185547 1.11914062 C22.82395937 1.07737426 28.3700055 0.7264509 34 0 C33.67 1.65 33.34 3.3 33 5 C27.86123014 6.71292329 22.44138115 6.18460346 17.0625 6.1875 C15.86947266 6.19974609 14.67644531 6.21199219 13.44726562 6.22460938 C11.72733398 6.22750977 11.72733398 6.22750977 9.97265625 6.23046875 C8.92343994 6.23457764 7.87422363 6.23868652 6.79321289 6.24291992 C4.0082683 6.00071908 2.36867201 5.43513866 0 4 C0 2.68 0 1.36 0 0 Z " fill="#CC91D7" transform="translate(7,38)"/>
<path d="M0 0 C3.25696479 0.41755959 4.63443291 0.63443291 7 3 C7.125 6.125 7.125 6.125 7 9 C5.68 8.67 4.36 8.34 3 8 C3 6.68 3 5.36 3 4 C2.34 4 1.68 4 1 4 C0.67 4.99 0.34 5.98 0 7 C-0.38133299 5.0085944 -0.71325582 3.00720923 -1 1 C-0.67 0.67 -0.34 0.34 0 0 Z " fill="#3A1E97" transform="translate(29,6)"/>
<path d="M0 0 C0.598125 0.226875 1.19625 0.45375 1.8125 0.6875 C1.1525 1.3475 0.4925 2.0075 -0.1875 2.6875 C-0.57036803 6.42046326 -0.33665785 7.46376323 1.8125 10.6875 C-2.9375 9.9375 -2.9375 9.9375 -5.1875 7.6875 C-5.56021546 4.78031944 -5.58028138 3.27667207 -3.9375 0.8125 C-2.1875 -0.3125 -2.1875 -0.3125 0 0 Z " fill="#E8C247" transform="translate(29.1875,22.3125)"/>
<path d="M0 0 C2.125 0.9375 2.125 0.9375 4 2 C3.01 3.485 3.01 3.485 2 5 C1.01 5 0.02 5 -1 5 C-1.33 3.68 -1.66 2.36 -2 1 C-1.34 0.67 -0.68 0.34 0 0 Z " fill="#DBB551" transform="translate(16,27)"/>
<path d="M0 0 C2.125 0.9375 2.125 0.9375 4 2 C3.01 3.485 3.01 3.485 2 5 C1.01 5 0.02 5 -1 5 C-1.33 3.68 -1.66 2.36 -2 1 C-1.34 0.67 -0.68 0.34 0 0 Z " fill="#E0BA4D" transform="translate(20,18)"/>
</svg>
